<svg width="722" height="703" viewBox="0 0 722 703" fill="none" xmlns="http://www.w3.org/2000/svg">
<path d="M721 57.4906C605 -23.3153 111.984 -63.7181 13.3914 267.053C-42.6077 454.926 102.662 503.389 219.661 440.764C315.661 389.379 332.661 432.684 324.661 458.946C316.661 485.208 249.686 505.589 274 561.59C298.313 617.591 450 607.043 400 703" stroke="url(#paint0_linear_802_4013)" stroke-width="2" stroke-linecap="round"/>
<g clip-path="url(#clip0_802_4013)">
<path d="M70.4595 149.101L67.3045 146.808C66.4656 146.199 66.0265 144.678 66.6954 143.739C67.3642 142.8 68.8474 142.816 69.7176 143.42L71.7419 144.891C71.7419 144.891 75.1798 141.968 75.206 141.932C73.3772 140.575 71.8584 139.443 70.6496 138.537C68.5831 137.203 64.732 137.869 62.6336 140.816C60.5353 143.762 61.0422 147.791 63.0482 149.248C83.9136 164.522 214.975 254.646 214.975 254.646L224.139 260.354C224.868 260.884 230.445 263.623 230.838 263.071C231.192 262.574 226.845 258.185 226.08 257.629L217.816 250.618C217.816 250.618 121.352 176.694 82.9875 147.754L79.602 150.603L83.9242 153.744C85.2555 154.711 86.052 156.352 85.3831 157.291C84.7143 158.23 82.7695 158.046 81.5111 157.132L70.4413 149.088L70.4595 149.101Z" fill="#FCFCFB"/>
</g>
<defs>
<linearGradient id="paint0_linear_802_4013" x1="174" y1="86" x2="650.681" y2="365.426" gradientUnits="userSpaceOnUse">
<stop stop-color="#FCFCFB"/>
<stop offset="1" stop-color="#FCFCFB" stop-opacity="0"/>
</linearGradient>
<clipPath id="clip0_802_4013">
<rect width="15.9485" height="252.494" fill="white" transform="matrix(0.580133 -0.814521 0.808973 0.587846 58 147.32)"/>
</clipPath>
</defs>
</svg>
